<svg xmlns="http://www.w3.org/2000/svg" viewBox="0 0 800 1000" role="img">
<defs><linearGradient id="g" x1="0" y1="0" x2="1" y2="1"><stop offset="0" stop-color="#F8F3EA"/><stop offset="1" stop-color="#EFE3D0"/></linearGradient></defs>
<rect width="800" height="1000" fill="url(#g)"/>
<circle cx="640" cy="180" r="120" fill="#C9A45C" opacity=".12"/>
<ellipse cx="400" cy="830" rx="230" ry="26" fill="#7A1F3D" opacity=".10"/>
<g transform="translate(0 0) scale(1)"><path d="M170 560C240 560 310 520 345 410C370 470 440 520 530 540L630 565C665 572 662 620 628 622L565 622L565 720L538 720L520 622L235 622C190 622 160 590 170 560Z" fill="#E8DCC6"/>
<path d="M345 410C365 470 440 520 530 540" stroke="#C9A45C" stroke-width="10" fill="none"/></g>
<text x="400" y="945" text-anchor="middle" font-family="Georgia,serif" font-size="28" letter-spacing="12" fill="#C9A45C" opacity=".9">DOSSORA</text></svg>